# xmcd
#
# Track frame offsets:
# 150
# 19203
# 30450
# 39912
# 48811
# 58813
# 72319
# 82971
# 98081
# 108737
#
# Disc length: 1650 seconds
#
#
# Revision: 0
# Processed by: cddbd v1.5.2PL0 Copyright (c) Steve Scherf et al.
# Submitted via: FreeRIP 2.942 
#
DISCID=7906700a
DTITLE=the Countdown Kids - Kids Pop Country, Disc 4 of 4
DYEAR=2006
DGENRE=Country
TTITLE0=Gone Country
TTITLE1=Wabash Cannonball
TTITLE2=On the Road Again
TTITLE3=Rocky Top
TTITLE4=Waltz Across Texas
TTITLE5=Don't Fence Me In
TTITLE6=Daddy Sang Bass
TTITLE7=Coal Miner's Daughter
TTITLE8=Act Naturally
TTITLE9=Will the Circle Be Unbroken
EXTD=
EXTT0=
EXTT1=
EXTT2=
EXTT3=
EXTT4=
EXTT5=
EXTT6=
EXTT7=
EXTT8=
EXTT9=
PLAYORDER=
